<svg width="14" height="19" viewBox="0 0 14 19" fill="none" xmlns="http://www.w3.org/2000/svg">
<path d="M6.74261 17.8583C5.84735 16.5199 5.08713 15.4031 4.44157 14.4548C3.28976 12.7627 2.50294 11.6069 1.96539 10.6851C1.55209 9.97644 1.30408 9.43472 1.15622 8.91985C1.00938 8.4085 0.95459 7.90016 0.95459 7.25C0.95459 3.78359 3.67561 1 7.00004 1C10.3245 1 13.0455 3.78359 13.0455 7.25C13.0455 7.90016 12.9907 8.4085 12.8439 8.91985C12.696 9.43472 12.448 9.97644 12.0347 10.6851C11.4971 11.6069 10.7103 12.7627 9.55852 14.4548C8.91293 15.4032 8.15268 16.52 7.25739 17.8584C7.1304 18.0472 6.86952 18.0472 6.74261 17.8583ZM7.00004 10.5625C8.79682 10.5625 10.2273 9.06483 10.2273 7.25C10.2273 5.43516 8.79682 3.9375 7.00004 3.9375C5.20327 3.9375 3.77277 5.43516 3.77277 7.25C3.77277 9.06483 5.20327 10.5625 7.00004 10.5625Z"/>
</svg>
