<svg width="18" height="18" viewBox="0 0 18 18" xmlns="http://www.w3.org/2000/svg">
<path d="M1.71913 1.4433C2.40171 0.767062 2.74411 0.427841 3.4278 1.10618L6.50945 4.16356C6.85185 4.50312 6.65067 5.08576 6.16704 5.52181C5.02237 6.46042 4.79713 7.55942 5.48194 8.23854C6.78462 10.464 7.74991 11.2299 9.5908 12.3133C10.7769 13.0008 11.3608 12.7505 12.33 11.6342C13.0346 10.8144 13.6997 11.2946 14.0421 11.6342L16.7813 14.3507C17.1237 14.6902 17.125 15.1821 16.7813 15.7089L15.4117 17.0672C14.0421 18.0859 12.4501 17.8233 10.2757 17.0672C5.04792 14.2918 2.7427 11.6342 0.345975 6.54073C-0.187848 4.81432 0.00357056 3.1451 0.688564 2.46599L1.71578 1.44661L1.71913 1.4433Z"/>
</svg>
